<?xml version="1.0" standalone="no" ?>
<!DOCTYPE svg PUBLIC "-//W3C//DTD SVG 20010904//EN" "http://www.w3.org/TR/2001/REC-SVG-20010904/DTD/svg10.dtd">
<svg
  version="1.0"
  xmlns="http://www.w3.org/2000/svg"
  width="512.000000pt"
  height="512.000000pt"
  viewBox="0 0 512.000000 512.000000"
  preserveAspectRatio="xMidYMid meet"
>
<metadata>
Created by potrace 1.11, written by Peter Selinger 2001-2013
</metadata>
<g transform="translate(0.000000,512.000000) scale(0.100000,-0.100000)" fill="#000000" stroke="none">
<path
      d="M135 3976 c-38 -41 -98 -153 -119 -224 -9 -32 -14 -81 -12 -127 4
-108 45 -187 134 -261 65 -54 186 -119 267 -144 22 -7 44 -16 48 -20 14 -12
-76 -79 -144 -106 -74 -30 -78 -33 -84 -62 -4 -21 18 -45 75 -83 l25 -17 -41
-12 c-47 -14 -71 -49 -55 -79 12 -22 91 -61 161 -79 39 -10 154 -8 189 3 22 7
23 5 17 -36 -3 -25 -19 -62 -37 -86 -56 -79 -73 -130 -73 -224 -1 -76 3 -92
31 -150 51 -102 136 -178 246 -220 46 -17 57 -27 72 -62 41 -93 142 -169 247
-184 59 -9 327 -9 371 0 24 5 29 1 41 -26 21 -52 35 -127 41 -222 2 -49 7
-101 10 -115 3 -14 8 -52 10 -85 7 -88 14 -161 25 -245 19 -158 22 -185 22
-249 0 -159 -17 -198 -98 -226 -75 -26 -153 -75 -194 -121 -59 -68 -30 -150
61 -174 41 -11 74 -13 259 -12 41 0 102 0 135 -1 62 -1 183 11 310 29 46 7 87
41 106 88 7 17 24 46 36 65 18 26 23 47 22 85 -2 68 8 111 41 171 54 96 82
221 84 375 1 41 10 105 21 141 l19 67 46 -49 c79 -85 122 -93 155 -29 13 26
18 28 41 20 47 -18 110 -68 137 -109 27 -40 55 -52 83 -33 13 8 54 98 54 118
0 37 75 1 125 -61 23 -28 46 -45 59 -45 21 0 63 35 91 75 13 20 14 20 47 1 18
-10 53 -35 78 -56 64 -52 74 -54 110 -19 16 17 30 34 30 39 0 4 24 -1 53 -12
76 -29 158 -31 267 -6 25 6 45 -140 44 -327 0 -157 -13 -195 -71 -211 -108
-32 -235 -125 -246 -181 -6 -31 12 -81 34 -99 27 -22 95 -37 164 -37 134 1
230 1 285 0 30 -1 84 2 120 6 36 5 90 10 120 13 60 6 118 21 137 36 7 5 31 44
54 86 38 68 43 85 45 149 2 59 9 84 34 135 32 63 57 125 66 163 16 69 21 112
23 185 l2 83 53 59 c29 33 65 83 80 113 24 44 32 53 51 49 18 -3 32 6 60 38
69 81 112 172 145 303 15 63 19 70 47 77 20 5 34 18 42 35 25 63 44 175 47
283 3 124 -7 188 -49 305 -29 80 -32 95 -57 295 -39 317 -130 489 -334 635
-150 107 -280 147 -456 141 -129 -5 -212 -24 -472 -107 -178 -57 -369 -107
-438 -115 -24 -3 -48 -8 -53 -11 -20 -12 -306 -10 -387 3 -47 7 -98 16 -115
18 -50 8 -279 84 -300 100 -19 13 -19 15 -3 33 57 62 81 198 54 302 -20 77
-78 191 -121 237 -26 27 -37 32 -61 28 -52 -9 -59 -25 -59 -132 0 -86 -4 -104
-29 -155 -29 -60 -88 -113 -171 -155 -39 -19 -182 -67 -227 -76 -13 -2 -43 -9
-66 -14 -43 -10 -45 -10 -104 38 -34 27 -91 60 -132 76 -65 25 -85 28 -244 32
-135 3 -188 0 -246 -12 -76 -17 -167 -65 -221 -115 l-30 -29 -85 18 c-233 49
-373 128 -427 239 -25 49 -28 67 -28 153 0 107 -9 128 -61 134 -21 2 -36 -6
-59 -30z"
    />
</g>
</svg>
