<svg enable-background="new 0 0 256 256" height="512" viewBox="0 0 256 256" width="512" xmlns="http://www.w3.org/2000/svg"><g fill="#c16a44"><path d="m226.803 195.579c0-4.409-5.511-8.817-5.511-8.817 0 4.409-7.715 9.92-7.715 9.92 0-6.613-7.715-9.92-7.715-9.92 0 2.137-.518 4.528-1.052 6.43 2.963 14.715 4.1 31.341-2.22 32.796-4.911 1.131-8.583 3.917-10.843 6.116-1.349 1.313-.806 3.586.99 4.147 2.9.907 5.954 1.214 8.977.905l12.869-1.317c1.733-.177 3.127-1.451 3.543-3.142.3-1.221.88-2.123 1.485-2.773 1.01-1.084 1.46-2.544 1.208-4.004-.77-4.456 1.93-8.642 1.93-8.642 3.925-6.349 4.645-14.445 4.143-21.766-.053.039-.089.067-.089.067z"/><path d="m203.657 196.681s-3.307-2.204-5.511-7.715-8.817-5.511-8.817-5.511c-.011.008-.018.018-.029.027 4.323 15.902 7.849 40.713.064 42.505-4.911 1.131-8.583 3.917-10.843 6.116-1.349 1.313-.806 3.586.99 4.147 2.9.907 5.954 1.214 8.977.905l5.555-.568c-.437-.108-.876-.202-1.306-.337-1.796-.562-2.339-2.835-.99-4.147 2.259-2.2 5.932-4.986 10.843-6.116 6.32-1.455 5.184-18.081 2.22-32.796-.568 2.022-1.153 3.49-1.153 3.49z"/><path d="m115.483 195.579-4.409-5.511c0 7.715-9.92 12.124-9.92 12.124 0-6.613-6.613-11.022-6.613-11.022l-.992 2.315c2.919 14.641 3.998 31.056-2.28 32.502-4.911 1.131-8.583 3.917-10.843 6.116-1.349 1.313-.806 3.586.99 4.147 2.9.907 5.954 1.214 8.977.905l12.869-1.317c1.733-.177 3.127-1.451 3.543-3.142.3-1.221.88-2.123 1.485-2.773 1.01-1.084 1.46-2.544 1.208-4.004-.77-4.456 1.93-8.642 1.93-8.642 3.952-6.392 4.654-14.554 4.131-21.915-.044.128-.076.217-.076.217z"/><path d="m91.236 198.885c-5.511-5.511-5.511-22.043-5.511-22.043l-4.409 9.92s-.554-.278-1.107-1.666c.022 4.859.458 9.704 1.205 14.507 1.988 12.768 2.041 25.138-3.371 26.384-4.911 1.131-8.583 3.917-10.843 6.116-1.349 1.313-.806 3.586.99 4.147 2.9.907 5.954 1.214 8.977.905l5.555-.568c-.437-.108-.876-.202-1.306-.337-1.796-.562-2.339-2.835-.99-4.147 2.259-2.2 5.932-4.986 10.843-6.116 6.278-1.445 5.199-17.861 2.28-32.502z"/></g><path d="m88.798 226.743c-3.678 1.355-6.511 3.549-8.371 5.36-1.349 1.313-.806 3.586.99 4.147 2.9.907 5.954 1.214 8.977.905l.868-.089c.577-4.402-.949-7.98-2.464-10.323z" fill="#52565b"/><path d="m200.117 226.743c-3.678 1.355-6.511 3.549-8.371 5.36-1.349 1.313-.806 3.586.99 4.147 2.9.907 5.954 1.214 8.977.905l.868-.089c.577-4.402-.948-7.98-2.464-10.323z" fill="#52565b"/><path d="m75.572 226.743c-3.678 1.355-6.511 3.549-8.371 5.36-1.349 1.313-.806 3.586.99 4.147 2.9.907 5.954 1.214 8.977.905l.868-.089c.577-4.402-.949-7.98-2.464-10.323z" fill="#52565b"/><path d="m186.891 226.743c-3.678 1.355-6.511 3.549-8.371 5.36-1.349 1.313-.806 3.586.99 4.147 2.9.907 5.954 1.214 8.977.905l.868-.089c.577-4.402-.948-7.98-2.464-10.323z" fill="#52565b"/><path d="m78.613 117.867c-4.517 0-8.689 1.235-12.096 3.324-1.92 1.177-4.348 1.163-6.213-.099-3.548-2.401-8.033-3.836-12.914-3.836-11.496 0-20.815 7.949-20.815 17.754s9.319 17.754 20.815 17.754c4.517 0 8.689-1.235 12.096-3.324 1.92-1.177 4.348-1.163 6.213.1 3.548 2.401 8.033 3.836 12.914 3.836 11.496 0 20.815-7.949 20.815-17.754 0-9.806-9.319-17.755-20.815-17.755z" fill="#ffc097"/><path d="m78.688 153.376c-4.881 0-9.366-1.436-12.914-3.836-1.865-1.262-4.293-1.277-6.213-.1-3.407 2.089-7.579 3.324-12.096 3.324-1.583 0-3.119-.164-4.601-.45 1.255 6.458 6.967 11.375 13.777 11.375h12.87c6.581 0 12.126-4.594 13.627-10.729-1.435.266-2.921.416-4.45.416z" fill="#c16a44"/><path d="m47.337 117.255c4.881 0 9.366 1.435 12.914 3.836 1.865 1.262 4.293 1.277 6.213.099 3.407-2.089 7.579-3.324 12.096-3.324 6.255 0 11.851 2.365 15.667 6.09l-4.003-27.133c-1.632-11.062-11.125-19.257-22.307-19.257h-9.936c-11.182 0-20.675 8.195-22.307 19.257l-3.898 26.422c3.813-3.666 9.362-5.99 15.561-5.99z" fill="#c16a44"/><path d="m112.344 104.603c-7.02-2.34-8.19-3.51-14.04-9.36-2.917-2.917-6.415-3.215-9.19-2.782.503 1.394.886 2.848 1.11 4.363l2.513 17.03c11.833 4.971 19.608-1.061 19.608-1.061-4.68-1.17-7.02-3.51-7.02-3.51z" fill="#7d3d1a"/><path d="m35.674 96.824c.224-1.519.609-2.978 1.114-4.375-2.759-.411-6.207-.089-9.09 2.793-5.85 5.85-7.02 7.02-14.04 9.36l7.02 4.68s-2.34 2.34-7.02 3.51c0 0 7.726 5.995 19.496 1.108z" fill="#7d3d1a"/><path d="m251.051 134.959c-5.511-12.124 2.204-36.372-25.35-49.598s-54.007 24.248-104.155 2.755c-1.502-.644-3.001-1.198-4.496-1.708-4.009 3.233-10.163 6.118-19.287 8.327.183.16.364.328.543.507 5.85 5.85 7.02 7.02 14.04 9.36l-7.02 4.68s2.34 2.34 7.02 3.51c0 0-7.775 6.033-19.608 1.062l1.482 10.046c3.233 3.128 5.209 7.224 5.209 11.722 0 8.542-7.076 15.671-16.5 17.367.069-.012.141-.017.21-.03-1.03 4.211-3.966 7.695-7.834 9.467 1.204 2.167 3.807 7.631 3.807 14.415 0 8.818 2.204 9.919 2.204 9.919l4.409-9.919s0 16.532 5.511 22.044l3.306-7.715s6.613 4.409 6.613 11.022c0 0 9.92-4.409 9.92-12.124l4.409 5.511s2.962-8.146 4.03-14.726c0 0 1.48 7.011 8.093 11.419l2.204-4.409s8.817 2.204 12.124 8.817c0 0 2.204-5.511 2.204-7.715 0 0 7.715 0 11.022 6.613 0 0 3.307-2.205 3.307-5.511 0 0 5.511 1.102 11.022 6.613 0 0 2.204-2.204 2.204-5.511 0 0 5.511 6.613 16.533 3.307 0 0-3.307-7.715 1.102-11.022 0 0 6.613 0 8.817 5.511s5.511 7.715 5.511 7.715 2.204-5.511 2.204-9.92c0 0 7.715 3.307 7.715 9.92 0 0 7.715-5.511 7.715-9.92 0 0 5.511 4.409 5.511 8.818 0 0 8.817-6.613 8.817-14.328l3.307 2.204s8.817-8.817 8.817-24.248l3.306 3.307c.002 0 5.513-15.43.002-27.554z" fill="#7d3d1a"/><path d="m83.035 90.563c.807-1.613 1.129-3.407.981-5.196-.032-.379-.074-.758-.11-1.137-4.11-4.134-9.787-6.662-15.989-6.662h-9.936c-6.133 0-11.747 2.476-15.846 6.527 2.976 2.587 5.03 6.173 5.585 10.006 2.134-2.06 4.125-4.259 5.955-6.576 2.45 3.038 2.869 4.715 3.62 7.718 2.34-1.17 4.538-3.735 6.138-6.142 1.587 1.996 2.759 4.298 3.426 6.73 2.943-1.228 5.216-3.857 5.94-6.871 2.455 1.718 4.378 4.134 5.466 6.866 2.112-1.369 3.6-2.923 4.77-5.263z" fill="#7d3d1a"/><path d="m117.424 58.629c-.247-.344-.67-.508-1.087-.435-.642.114-1.039.751-.867 1.381.846 3.093.821 7.134-1.495 12.106-4.078 8.755-19.368 12.425-28.847 13.886 1.787 2.111 3.182 4.567 4.1 7.261-.041-.121-.07-.248-.114-.368 2.597-.406 5.822-.141 8.617 2.283 34.064-8.234 27.066-25.842 19.693-36.114z" fill="#52565b"/><path d="m36.788 92.449c-.043.12-.072.247-.114.368.92-2.696 2.319-5.152 4.108-7.263-9.485-1.471-24.69-5.145-28.755-13.872-2.316-4.973-2.341-9.014-1.495-12.106.172-.63-.224-1.267-.867-1.381-.417-.074-.84.091-1.087.435-7.373 10.271-14.372 27.879 19.692 36.114 2.76-2.394 5.937-2.679 8.518-2.295z" fill="#52565b"/><path d="m101.155 204.691c-.477 0-.951-.136-1.362-.403-.709-.462-1.138-1.25-1.138-2.097 0-2.855-1.668-5.278-3.168-6.879l-1.954 4.558c-.327.762-1.011 1.312-1.825 1.47-.815.158-1.654-.101-2.24-.688-3.099-3.099-4.66-8.771-5.447-13.821l-.42.945c-.277.624-.798 1.106-1.44 1.338-.642.229-1.352.188-1.962-.117-1.339-.67-3.586-3.139-3.586-12.155 0-6.242-2.442-11.311-3.492-13.201-.338-.608-.408-1.331-.19-1.993s.701-1.203 1.334-1.493c2.913-1.335 5.17-3.864 6.182-6.876-.153-1.299.729-2.51 2.033-2.748.002-.001.005-.001.007-.002 8.369-1.506 14.443-7.775 14.443-14.906 0-3.624-1.58-7.148-4.448-9.926-.396-.383-.654-.886-.734-1.431l-1.482-10.046c-.132-.893.228-1.787.941-2.341.712-.554 1.667-.68 2.5-.329 5.106 2.145 9.317 2.014 12.284 1.318-1.475-.892-2.281-1.666-2.432-1.817-.53-.529-.794-1.269-.72-2.014s.478-1.419 1.101-1.834l2.972-1.981c-3.918-1.756-5.845-3.683-10.373-8.21-.137-.138-.275-.267-.416-.389-.706-.613-1.01-1.57-.789-2.479.221-.908.931-1.618 1.84-1.838 8.138-1.971 14.297-4.61 18.307-7.845.667-.538 1.566-.696 2.377-.42 1.776.607 3.261 1.172 4.673 1.776 27.533 11.801 47.512 5.331 65.139-.378 13.506-4.372 26.26-8.504 39.114-2.333 20.939 10.051 22.788 26.649 24.139 38.77.535 4.802.997 8.949 2.405 12.048 5.862 12.897.317 28.761.078 29.43-.288.807-.97 1.41-1.806 1.599-.591.131-1.196.046-1.715-.229-1.698 12.86-8.847 20.153-9.19 20.497-.842.843-2.163.975-3.154.312l-.103-.068c-2.173 6.82-8.8 11.861-9.135 12.112-.759.569-1.773.659-2.618.236-.847-.424-1.382-1.289-1.382-2.236 0-1.365-.938-2.93-2-4.246-2.215 3.631-6.229 6.638-7.272 7.383-.762.544-1.766.617-2.597.188-.833-.429-1.356-1.286-1.356-2.223 0-2.465-1.599-4.392-3.172-5.691-.673 3.456-1.857 6.446-1.927 6.62-.28.699-.86 1.235-1.58 1.459-.717.223-1.501.111-2.128-.308-.404-.27-4.022-2.81-6.445-8.866-1.139-2.849-4.06-3.638-5.566-3.856-1.468 2.036-.318 6.069.269 7.46.275.654.262 1.397-.04 2.04-.303.643-.862 1.129-1.542 1.333-7.347 2.202-12.595.497-15.727-1.341-.784 1.698-1.782 2.74-1.961 2.918-.977.977-2.559.977-3.535 0-2.792-2.792-5.59-4.333-7.467-5.139-1.163 2.583-3.377 4.128-3.708 4.349-.597.398-1.337.521-2.028.336-.693-.184-1.273-.656-1.595-1.298-1.631-3.263-4.677-4.49-6.718-4.952-.607 2.443-1.671 5.166-1.95 5.865-.365.914-1.233 1.528-2.218 1.569-.961.027-1.899-.498-2.34-1.38-1.88-3.761-6.148-5.904-8.623-6.874l-1.232 2.466c-.321.641-.901 1.114-1.595 1.298-.693.185-1.432.062-2.028-.336-2.614-1.743-4.516-3.84-5.886-5.835-1.17 4.235-2.422 7.694-2.502 7.915-.309.85-1.052 1.466-1.944 1.612-.895.146-1.793-.199-2.358-.905l-1.303-1.629c-2.939 5.736-9.694 8.804-10.058 8.965-.325.146-.671.217-1.016.217zm-6.613-16.021c.488 0 .972.144 1.387.42.259.172 5.29 3.587 7.091 9.146 2.443-1.673 5.555-4.52 5.555-8.168 0-1.062.67-2.008 1.672-2.359 1.003-.351 2.117-.03 2.78.798l1.534 1.917c.882-2.842 1.945-6.642 2.485-9.971.193-1.188 1.205-2.07 2.409-2.099 1.21-.056 2.257.805 2.505 1.982.009.042 1.02 4.434 4.792 8.056l.823-1.646c.524-1.049 1.706-1.59 2.843-1.308.319.08 6.322 1.628 10.704 5.972.312-1.072.518-1.975.518-2.443 0-1.381 1.119-2.5 2.5-2.5.326 0 7.001.067 11.369 5.144.269-.465.459-.99.459-1.542 0-.749.336-1.459.915-1.934.58-.475 1.34-.667 2.075-.518.222.044 4.836 1.009 9.965 5.187.161-.485.271-1.036.271-1.633 0-1.053.659-1.992 1.649-2.351.989-.357 2.099-.058 2.771.75.156.181 3.883 4.353 11.396 3.098-.881-3.662-.853-8.461 2.817-11.213.433-.324.959-.5 1.5-.5.339 0 8.338.08 11.139 7.083.645 1.611 1.394 2.896 2.099 3.886.424-1.614.795-3.501.795-5.162 0-.841.422-1.624 1.124-2.087.701-.462 1.591-.542 2.36-.211.3.128 5.939 2.604 8.253 7.705 1.955-1.854 3.693-4.007 3.693-5.407 0-.961.551-1.837 1.417-2.253.865-.418 1.893-.3 2.645.301.467.373 3.496 2.876 5.232 6.237 2.246-2.326 5.034-5.982 5.034-9.796 0-.922.508-1.77 1.32-2.204.812-.437 1.8-.389 2.566.124l1.443.962c2.284-3.02 6.794-10.327 6.794-20.925 0-1.011.609-1.923 1.543-2.31.938-.387 2.01-.172 2.725.542l.272.272c1.16-5.104 2.401-14.214-1.01-21.719-1.737-3.822-2.264-8.554-2.822-13.562-1.355-12.17-2.893-25.964-21.333-34.815-11.049-5.306-22.339-1.649-35.41 2.582-17.549 5.682-39.391 12.757-68.648.217-.952-.407-1.947-.798-3.066-1.2-3.722 2.701-8.701 4.98-14.859 6.804 3.624 3.519 5.144 4.429 10.499 6.213.906.303 1.561 1.094 1.688 2.04.126.946-.297 1.883-1.091 2.412l-3.876 2.584c.843.399 1.876.796 3.096 1.101.928.232 1.643.975 1.84 1.911s-.158 1.903-.914 2.489c-.325.254-7.307 5.528-18.072 2.76l.767 5.196c3.46 3.632 5.356 8.181 5.356 12.898 0 9.029-6.971 16.974-16.814 19.452-1.197 3.405-3.507 6.363-6.509 8.364 1.343 2.964 3.007 7.772 3.007 13.403 0 1.098.036 2.053.096 2.882l1.732-3.897c.479-1.078 1.646-1.677 2.803-1.43 1.155.245 1.981 1.264 1.982 2.444.002 3.357.526 11.403 2.603 16.648l1.417-3.305c.292-.683.874-1.199 1.585-1.411.235-.069.475-.103.714-.103z"/><path d="m88.087 239.773c-2.511 0-4.996-.38-7.417-1.138-1.691-.528-2.947-1.873-3.359-3.596-.412-1.724.101-3.491 1.372-4.729 1.891-1.841 5.031-4.36 9.251-5.914 1.094-.404 2.328.006 2.963.987 1.675 2.59 3.529 6.775 2.845 12.006-.15 1.149-1.071 2.045-2.225 2.163l-.868.089c-.856.088-1.71.132-2.562.132zm-.38-9.838c-2.432 1.213-4.305 2.762-5.536 3.96 2.18.658 4.43.955 6.707.863-.066-1.856-.558-3.487-1.171-4.823z"/><path d="m199.406 239.773c-2.511 0-4.995-.38-7.415-1.138-1.691-.528-2.948-1.873-3.359-3.596-.412-1.723.101-3.491 1.371-4.729 1.89-1.84 5.027-4.359 9.25-5.914 1.1-.405 2.329.007 2.963.987 1.676 2.591 3.529 6.775 2.845 12.006-.15 1.149-1.071 2.045-2.224 2.163l-.868.089c-.857.088-1.711.132-2.563.132zm-.38-9.838c-2.433 1.213-4.305 2.762-5.535 3.959 2.181.659 4.438.957 6.706.864-.065-1.856-.558-3.487-1.171-4.823z"/><path d="m74.861 239.773c-2.511 0-4.996-.38-7.417-1.138-1.691-.528-2.947-1.873-3.359-3.596-.412-1.724.101-3.491 1.372-4.729 1.891-1.841 5.031-4.36 9.251-5.914 1.096-.404 2.327.006 2.963.987 1.675 2.59 3.529 6.775 2.845 12.006-.15 1.149-1.071 2.045-2.225 2.163l-.868.089c-.856.088-1.71.132-2.562.132zm-.38-9.838c-2.432 1.213-4.305 2.762-5.536 3.96 2.18.658 4.43.955 6.707.863-.066-1.856-.558-3.487-1.171-4.823z"/><path d="m186.182 239.773c-2.512 0-4.997-.38-7.417-1.138-1.692-.528-2.948-1.873-3.359-3.596-.412-1.724.101-3.491 1.371-4.729 1.892-1.841 5.031-4.36 9.251-5.914 1.101-.405 2.329.007 2.963.987 1.676 2.59 3.528 6.774 2.845 12.006-.149 1.149-1.07 2.045-2.224 2.163l-.868.089c-.857.088-1.712.132-2.562.132zm-.381-9.838c-2.432 1.213-4.306 2.762-5.537 3.96 2.182.658 4.433.956 6.708.863-.067-1.856-.559-3.487-1.171-4.823z"/><path d="m199.406 239.773c-2.511 0-4.995-.38-7.415-1.138-1.691-.528-2.948-1.873-3.36-3.596-.411-1.723.102-3.491 1.372-4.729 2.45-2.386 6.525-5.495 12.026-6.762 2.518-.579 4.285-10.229.329-29.866-.078-.388-.062-.788.044-1.169.628-2.232.959-4.222.959-5.754 0-.841.422-1.624 1.124-2.087.701-.462 1.591-.542 2.36-.211.3.128 5.939 2.604 8.253 7.705 1.955-1.854 3.693-4.007 3.693-5.407 0-.961.551-1.837 1.417-2.253.865-.418 1.893-.3 2.645.301.625.499 5.836 4.81 6.399 9.888.072.204.117.42.133.643.654 9.529-.863 17.353-4.511 23.252-.041.066-2.181 3.497-1.592 6.902.384 2.229-.287 4.464-1.843 6.134-.431.462-.729 1.022-.887 1.666-.669 2.729-2.967 4.751-5.716 5.033l-12.869 1.316c-.855.088-1.709.132-2.561.132zm7.971-46.494c5.351 26.992.668 34.017-4.227 35.144-4.373 1.007-7.667 3.531-9.659 5.471 2.582.78 5.264 1.054 7.968.774l12.869-1.316c.662-.067 1.2-.559 1.37-1.251.363-1.481 1.064-2.787 2.083-3.881.481-.518.691-1.2.574-1.876-.926-5.354 2.161-10.218 2.293-10.423 2.974-4.811 4.257-11.388 3.794-19.521-.091-.26-.14-.537-.14-.822 0-1.365-.938-2.93-2-4.246-2.215 3.631-6.229 6.638-7.272 7.383-.761.544-1.764.617-2.597.188s-1.356-1.286-1.356-2.223c0-2.475-1.596-4.4-3.169-5.697-.143.736-.32 1.502-.531 2.296zm21.926 2.299h.01z"/><path d="m186.182 239.773c-2.512 0-4.997-.38-7.417-1.138-1.692-.528-2.948-1.873-3.359-3.596-.412-1.724.101-3.491 1.371-4.729 2.451-2.386 6.527-5.495 12.025-6.762.17-.039.619-.142 1.142-1.015 2.461-4.109 2.227-18.964-3.056-38.398-.248-.911.04-1.881.735-2.51.074-.068.159-.138.235-.193.428-.312.942-.479 1.471-.479.339 0 8.338.08 11.139 7.082.659 1.648 1.429 2.955 2.147 3.955.446-.817 1.303-1.326 2.288-1.3 1.154.043 2.129.872 2.357 2.005 5.533 27.472.819 34.591-4.11 35.726-4.373 1.007-7.667 3.531-9.659 5.471.257.054.523.115.79.179l.364.088c1.179.293 1.978 1.392 1.892 2.604s-1.031 2.187-2.239 2.311l-5.555.568c-.856.087-1.711.131-2.561.131zm6.534-53.025c2.979 12.339 5.893 31.051 1.517 38.356-1.335 2.23-3.08 3.035-4.309 3.318-4.372 1.007-7.666 3.531-9.66 5.472 2.584.779 5.267 1.053 7.97.773l.318-.032c-.248-1.592.279-3.184 1.451-4.324 2.45-2.386 6.525-5.495 12.026-6.762 2.271-.522 3.932-8.427 1.331-24.387-.385-.046-.759-.182-1.09-.402-.404-.27-4.022-2.81-6.445-8.866-.652-1.63-1.888-2.586-3.109-3.146z"/><path d="m88.087 239.773c-2.511 0-4.996-.38-7.417-1.138-1.691-.528-2.947-1.873-3.359-3.596-.412-1.724.101-3.491 1.372-4.729 2.451-2.386 6.526-5.495 12.026-6.762 2.496-.574 4.267-10.13.39-29.576-.099-.496-.045-1.01.154-1.474l.992-2.314c.292-.683.874-1.2 1.585-1.412.71-.212 1.481-.096 2.099.316.259.172 5.29 3.587 7.091 9.146 2.443-1.673 5.555-4.52 5.555-8.168 0-1.062.67-2.008 1.672-2.359 1.003-.351 2.117-.03 2.78.798l3.729 4.66c.731.398 1.237 1.148 1.299 2.019.683 9.6-.831 17.475-4.498 23.406-.042.066-2.181 3.497-1.593 6.902.385 2.229-.286 4.464-1.842 6.134-.43.462-.728 1.022-.886 1.666-.67 2.729-2.967 4.751-5.716 5.033l-12.87 1.316c-.857.088-1.711.132-2.563.132zm8.632-42.968c4.258 24.096-.225 30.545-4.888 31.618-4.373 1.007-7.667 3.531-9.66 5.471 2.583.781 5.265 1.053 7.969.774l12.87-1.316c.662-.067 1.199-.559 1.37-1.252.364-1.48 1.064-2.786 2.083-3.88.482-.518.691-1.2.574-1.875-.925-5.355 2.161-10.219 2.292-10.423 2.944-4.764 4.231-11.257 3.807-19.276l-.907-1.135c-2.939 5.736-9.694 8.804-10.058 8.965-.772.345-1.668.273-2.377-.188-.709-.462-1.138-1.25-1.138-2.097-.001-2.073-.881-3.919-1.937-5.386z"/><path d="m74.861 239.773c-2.511 0-4.996-.38-7.417-1.138-1.691-.528-2.947-1.873-3.359-3.596-.412-1.724.101-3.491 1.372-4.729 2.451-2.386 6.526-5.495 12.026-6.762 1.99-.458 4.022-7.111 1.461-23.562-.798-5.126-1.213-10.133-1.235-14.88-.005-1.201.844-2.236 2.023-2.466.234-.045.467-.055.695-.037l3.013-6.778c.48-1.078 1.649-1.677 2.803-1.43 1.155.245 1.981 1.264 1.982 2.444.002 3.357.526 11.403 2.604 16.649l.424-.991c.432-1.007 1.467-1.608 2.558-1.501 1.089.113 1.978.924 2.192 1.997 5.43 27.237.729 34.3-4.171 35.428-4.373 1.007-7.667 3.531-9.66 5.471.256.053.524.115.791.179l.365.088c1.179.293 1.977 1.392 1.891 2.604s-1.031 2.187-2.239 2.311l-5.555.568c-.858.087-1.712.131-2.564.131zm7.946-51.005c.162 3.382.522 6.883 1.078 10.45 2.791 17.93 1.014 27.756-5.28 29.205-4.373 1.007-7.667 3.531-9.66 5.471 2.583.78 5.267 1.054 7.969.774l.318-.032c-.248-1.592.28-3.184 1.451-4.324 2.451-2.386 6.526-5.495 12.026-6.762 2.168-.499 3.789-7.775 1.636-22.425-.199.099-.413.172-.637.215-.815.158-1.654-.101-2.24-.688-3.099-3.099-4.66-8.771-5.447-13.821l-.42.945c-.177.397-.452.737-.794.992z"/><path d="m78.613 155.876c-5.241 0-10.191-1.475-14.315-4.266-1.03-.696-2.406-.712-3.505-.039-3.939 2.416-8.574 3.692-13.403 3.692-12.856 0-23.315-9.086-23.315-20.254 0-11.169 10.459-20.255 23.315-20.255 5.241 0 10.191 1.476 14.315 4.267 1.03.697 2.406.714 3.505.038 3.94-2.415 8.575-3.692 13.402-3.692 12.856 0 23.315 9.086 23.315 20.255.001 11.168-10.458 20.254-23.314 20.254zm-16.079-9.798c1.604 0 3.198.465 4.566 1.392 3.293 2.229 7.274 3.406 11.513 3.406 10.099 0 18.315-6.843 18.315-15.254s-8.216-15.255-18.315-15.255c-3.905 0-7.636 1.022-10.789 2.955-2.767 1.697-6.269 1.635-8.921-.16-3.294-2.229-7.275-3.407-11.513-3.407-10.099 0-18.315 6.844-18.315 15.255s8.216 15.254 18.315 15.254c3.906 0 7.637-1.021 10.789-2.954 1.339-.823 2.851-1.232 4.355-1.232z"/><path d="m47.429 135.88c-1.381 0-2.5-1.119-2.5-2.5 0-1.325-1.078-2.403-2.403-2.403s-2.403 1.078-2.403 2.403c0 1.381-1.119 2.5-2.5 2.5s-2.5-1.119-2.5-2.5c0-4.082 3.321-7.403 7.403-7.403s7.403 3.321 7.403 7.403c0 1.381-1.119 2.5-2.5 2.5z"/><path d="m88.379 135.88c-1.381 0-2.5-1.119-2.5-2.5 0-1.325-1.078-2.403-2.403-2.403s-2.403 1.078-2.403 2.403c0 1.381-1.119 2.5-2.5 2.5s-2.5-1.119-2.5-2.5c0-4.082 3.321-7.403 7.403-7.403s7.403 3.321 7.403 7.403c0 1.381-1.119 2.5-2.5 2.5z"/><path d="m69.512 166.188h-12.87c-7.896 0-14.723-5.635-16.231-13.397-.158-.814.098-1.655.685-2.243.587-.587 1.426-.846 2.242-.688 5.438 1.047 10.678.049 14.918-2.55 2.768-1.699 6.27-1.636 8.921.16 4.315 2.921 9.875 4.084 15.504 3.031.832-.155 1.69.124 2.274.74s.814 1.487.613 2.312c-1.82 7.439-8.422 12.635-16.056 12.635zm-22.95-10.941c1.994 3.582 5.813 5.941 10.08 5.941h12.87c4.02 0 7.629-2.068 9.703-5.318-5.428.117-10.579-1.375-14.841-4.26-1.03-.696-2.406-.712-3.505-.039-4.185 2.566-9.135 3.867-14.307 3.676z"/><path d="m94.228 126.457c-.638 0-1.269-.244-1.747-.711-3.502-3.418-8.576-5.379-13.921-5.379-3.904 0-7.635 1.022-10.789 2.955-2.767 1.698-6.269 1.635-8.92-.16-3.294-2.229-7.275-3.407-11.513-3.407-5.291 0-10.331 1.93-13.829 5.293-.771.742-1.928.91-2.878.421-.95-.49-1.484-1.53-1.328-2.588l3.898-26.422c1.799-12.195 12.451-21.392 24.779-21.392h9.937c12.328 0 22.981 9.196 24.78 21.392l4.003 27.133c.157 1.062-.381 2.104-1.336 2.592-.361.183-.75.273-1.136.273zm-46.891-11.702c5.241 0 10.191 1.476 14.315 4.267 1.029.697 2.406.714 3.505.038 3.94-2.415 8.575-3.692 13.402-3.692 4.394 0 8.66 1.086 12.326 3.073l-3.135-21.252c-1.44-9.762-9.966-17.122-19.833-17.122h-9.937c-9.867 0-18.394 7.36-19.833 17.122l-3.038 20.589c3.647-1.955 7.879-3.023 12.228-3.023z"/><path d="m101.974 118.328c-2.968 0-6.403-.571-10.206-2.169-.807-.339-1.377-1.074-1.505-1.939l-2.513-17.03c-.189-1.281-.521-2.587-.988-3.881-.253-.702-.18-1.48.201-2.122s1.028-1.08 1.765-1.195c4.447-.696 8.371.51 11.344 3.484 5.723 5.723 6.603 6.602 13.062 8.755.906.303 1.561 1.094 1.688 2.04.126.946-.297 1.883-1.091 2.412l-3.876 2.584c.843.399 1.876.796 3.096 1.101.928.232 1.643.975 1.84 1.911s-.158 1.903-.914 2.49c-.258.2-4.704 3.559-11.903 3.559zm-6.976-6.276c4.525 1.615 8.278 1.452 10.991.816-1.475-.892-2.281-1.666-2.432-1.817-.53-.529-.794-1.269-.72-2.014s.478-1.419 1.101-1.834l2.972-1.981c-3.918-1.756-5.845-3.683-10.373-8.21-1.161-1.161-2.542-1.867-4.125-2.112.113.521.208 1.041.284 1.56z"/><path d="m24.029 118.327c-7.201 0-11.646-3.359-11.903-3.56-.756-.586-1.111-1.553-.914-2.489s.912-1.679 1.84-1.911c1.22-.305 2.252-.7 3.095-1.101l-3.875-2.584c-.794-.529-1.218-1.466-1.091-2.412s.782-1.737 1.688-2.04c6.46-2.153 7.34-3.032 13.062-8.755 2.945-2.944 6.825-4.157 11.226-3.499.741.11 1.394.548 1.778 1.191s.459 1.425.205 2.13c-.469 1.3-.803 2.609-.992 3.892l-2.52 17.077c-.128.869-.703 1.606-1.515 1.943-3.755 1.561-7.149 2.118-10.084 2.118zm-4.021-5.456c2.689.632 6.403.799 10.886-.779l2.307-15.633c.075-.511.168-1.024.28-1.539-1.539.26-2.881.958-4.015 2.091-4.528 4.528-6.455 6.455-10.373 8.211l2.972 1.981c.624.416 1.027 1.089 1.101 1.834s-.19 1.484-.72 2.014c-.152.151-.959.928-2.438 1.82zm15.666-16.047h.01z"/><path d="m97.731 97.244c-.595 0-1.178-.213-1.638-.611-1.48-1.283-3.261-1.906-5.339-1.823-.211.163-.452.294-.718.385-1.307.447-2.726-.249-3.173-1.555-.001-.003-.002-.006-.003-.01-.814-2.385-2.039-4.555-3.641-6.448-.584-.69-.75-1.643-.433-2.49s1.067-1.457 1.961-1.595c14.481-2.23 24.309-6.776 26.961-12.471 1.752-3.763 2.207-7.259 1.35-10.391-.268-.979-.111-2.029.429-2.884.539-.852 1.417-1.441 2.412-1.618 1.363-.243 2.758.325 3.556 1.438 6.11 8.512 7.963 16.183 5.506 22.798-2.913 7.847-11.877 13.635-26.643 17.204-.193.048-.391.071-.587.071zm-6.65-7.44c2.669 0 5.12.752 7.225 2.222 12.351-3.152 19.739-7.791 21.969-13.796 1.406-3.787.781-8.241-1.854-13.286-.208 2.519-.936 5.124-2.18 7.794-3.897 8.368-15.996 12.541-26.786 14.619.466.791.89 1.608 1.268 2.451.12-.003.239-.004.358-.004zm24.311-29.718c.001.002.002.003.003.004-.001-.002-.002-.002-.003-.004z"/><path d="m28.27 97.244c-.196 0-.393-.023-.587-.07-14.766-3.57-23.729-9.358-26.642-17.204-2.456-6.615-.604-14.286 5.507-22.798.797-1.112 2.189-1.684 3.551-1.439 1 .178 1.878.768 2.417 1.619.541.854.697 1.905.429 2.884-.856 3.132-.402 6.628 1.35 10.391 2.646 5.68 12.44 10.22 26.872 12.457.894.139 1.644.75 1.959 1.598.316.848.15 1.8-.436 2.49-1.606 1.894-2.833 4.063-3.647 6.449-.001.003-.002.005-.003.008-.447 1.305-1.868 2-3.174 1.555-.259-.089-.495-.216-.702-.372-2.039-.08-3.797.557-5.255 1.822-.46.397-1.044.61-1.639.61zm-20.688-32.301c-2.636 5.046-3.26 9.499-1.854 13.286 2.229 6.005 9.618 10.644 21.968 13.796 2.169-1.513 4.717-2.248 7.479-2.217.381-.85.809-1.674 1.28-2.471-10.753-2.083-22.806-6.255-26.693-14.601-1.244-2.669-1.971-5.274-2.18-7.793z"/><path d="m66.86 98.33c-.375 0-.75-.085-1.096-.253-.646-.315-1.125-.893-1.315-1.586-.285-1.039-.682-2.059-1.176-3.034-1.361 1.578-3.012 3.098-4.859 4.021-.679.339-1.474.354-2.163.035-.689-.316-1.197-.93-1.381-1.665-.451-1.804-.739-2.957-1.384-4.185-1.281 1.467-2.629 2.884-4.029 4.235-.675.651-1.658.871-2.545.566-.888-.304-1.531-1.078-1.665-2.007-.458-3.162-2.189-6.252-4.751-8.478-.525-.456-.837-1.11-.859-1.807-.022-.695.246-1.368.741-1.857 4.729-4.676 10.98-7.25 17.604-7.25h9.937c6.71 0 13.018 2.628 17.762 7.399.408.41.661.949.716 1.525l.039.397c.026.256.052.513.073.77.189 2.272-.239 4.526-1.236 6.521-1.322 2.644-3.063 4.568-5.646 6.242-.628.407-1.406.512-2.118.284-.713-.228-1.287-.762-1.564-1.457-.521-1.311-1.284-2.545-2.23-3.63-1.381 2.201-3.453 4-5.89 5.017-.311.133-.638.197-.965.197zm-3.426-11.729c.76 0 1.481.347 1.957.944 1.101 1.384 2.032 2.916 2.761 4.528 1.087-1.001 1.88-2.296 2.217-3.698.193-.805.771-1.461 1.545-1.754.773-.291 1.642-.186 2.319.29 1.924 1.347 3.582 3.085 4.842 5.052.683-.724 1.232-1.535 1.724-2.519.587-1.175.838-2.513.726-3.87-.005-.062-.011-.123-.017-.185-3.719-3.438-8.512-5.322-13.591-5.322h-9.937c-4.458 0-8.707 1.459-12.198 4.152 1.319 1.525 2.382 3.226 3.152 5.037.966-1.065 1.894-2.162 2.778-3.281.472-.598 1.189-.947 1.949-.951.738.035 1.482.339 1.959.931 1.622 2.011 2.477 3.553 3.063 5.106.893-.907 1.803-2.044 2.668-3.346.443-.665 1.177-1.079 1.976-1.113.036 0 .071-.001.107-.001z"/><path d="m44.946 111.585c-1.377 0-2.496-1.114-2.5-2.492-.006-1.876.719-3.643 2.042-4.974 1.323-1.332 3.085-2.068 4.961-2.074h.022c3.864 0 7.014 3.137 7.026 7.003.004 1.381-1.111 2.504-2.492 2.508-.002 0-.005 0-.008 0-1.377 0-2.496-1.114-2.5-2.492-.003-1.114-.912-2.019-2.026-2.019-.002 0-.004 0-.006 0-.541.002-1.049.214-1.43.598s-.59.894-.589 1.435c.004 1.381-1.111 2.504-2.492 2.508-.003-.001-.006-.001-.008-.001z"/><path d="m72.004 111.585c-1.377 0-2.496-1.114-2.5-2.491-.006-1.877.719-3.644 2.042-4.976 1.323-1.331 3.085-2.067 4.961-2.073h.022c3.864 0 7.014 3.137 7.026 7.003.004 1.381-1.111 2.504-2.492 2.508-.002 0-.005 0-.008 0-1.377 0-2.496-1.114-2.5-2.492-.003-1.114-.912-2.019-2.026-2.019-.002 0-.004 0-.006 0-.541.002-1.049.214-1.431.598-.381.384-.59.894-.588 1.434.004 1.381-1.111 2.504-2.492 2.509-.002-.001-.005-.001-.008-.001z"/><path d="m119.517 183.353c-.133 0-.268-.011-.403-.032-1.363-.222-2.289-1.505-2.067-2.868.229-1.415.346-2.63.346-3.61 0-.804.386-1.559 1.038-2.028.652-.47 1.49-.598 2.252-.344l3.967 1.322c.39-2.6.667-7.1-.585-12.736-.3-1.348.55-2.683 1.898-2.982 1.348-.301 2.684.55 2.983 1.898 2.328 10.475.03 17.568-.069 17.865-.437 1.31-1.852 2.015-3.162 1.581l-3.58-1.193c-.045.334-.096.677-.153 1.028-.2 1.226-1.261 2.099-2.465 2.099z"/><path d="m192.047 186.371c-.566 0-1.136-.191-1.604-.583-4.277-3.578-6.411-7.296-7.459-10.346-.411.229-.889.338-1.372.312-.89-.056-1.682-.58-2.081-1.377-4.522-9.044-3.073-16.655-3.009-16.975.271-1.354 1.595-2.23 2.941-1.961 1.351.27 2.228 1.581 1.963 2.931-.019.101-.729 4.137.897 9.546l.157-.236c.649-.973 1.886-1.366 2.979-.946 1.092.421 1.745 1.543 1.573 2.7-.028.231-.706 6.39 6.618 12.519 1.059.886 1.199 2.463.312 3.521-.491.59-1.201.895-1.915.895z"/></svg>